<svg viewBox="0 0 39 46" xmlns="http://www.w3.org/2000/svg"><path fill-rule="evenodd" d="M29.265 14.683h-1.59v11.845H24.23V14.683h-1.587v-2.376h6.62v2.376zm-8.478-6.148v21.77c0 2.823-2.31 4.284-5.155 4.284-2.846 0-5.174-1.234-5.174-3.63h.003c0-.94.77-1.703 1.72-1.703.948 0 1.717.763 1.717 1.703h.002c0 1.74.14 2.92 1.732 2.92 1.712 0 1.712-1.185 1.712-3.574l.002-21.77c0-2.82 2.307-4.282 5.153-4.282 2.845 0 5.173 1.23 5.173 3.628h-.002c0 .94-.77 1.703-1.72 1.703-.947 0-1.716-.762-1.716-1.703h-.002c0-1.74-.14-2.92-1.733-2.92-1.714 0-1.713 1.184-1.713 3.573zm-10.323 3.772h3.43L13.9 26.52h-3.44l.004-14.213zM0 .23v19.21C0 36.735 19.062 46 19.062 46s19.133-9.265 19.133-26.56V.23H0z" fill="#009DE0" class="graphic"></path></svg>